<?xml version="1.0" encoding="utf-8"?>
<!DOCTYPE svg PUBLIC "-//W3C//DTD SVG 1.1//EN" "http://www.w3.org/Graphics/SVG/1.1/DTD/svg11.dtd">
<svg version="1.1" id="Capa_1" xmlns="http://www.w3.org/2000/svg" xmlns:xlink="http://www.w3.org/1999/xlink" x="0px" y="0px"
	 viewBox="-447 321 128 128" style="enable-background:new -447 321 128 128;" xml:space="preserve">
<g>
	<g>
		<path style="&st0;" d="M-383,354.6l-45.7,37.6c0,0.1,0,0.1,0,0.2c0,0.1,0,0.2,0,0.2v38.1c0,1.4,0.5,2.6,1.5,3.6s2.2,1.5,3.6,1.5
			h30.5v-30.5h20.3v30.5h30.5c1.4,0,2.6-0.5,3.6-1.5s1.5-2.2,1.5-3.6v-38.1c0-0.2,0-0.4-0.1-0.5L-383,354.6z"/>
		<path style="&st0;" d="M-319.9,383.7l-17.4-14.4v-32.4c0-0.7-0.2-1.3-0.7-1.8s-1.1-0.7-1.8-0.7H-355c-0.7,0-1.4,0.2-1.8,0.7
			c-0.5,0.5-0.7,1.1-0.7,1.8v15.5l-19.4-16.2c-1.7-1.4-3.7-2.1-6-2.1s-4.3,0.7-6,2.1l-57.1,47.6c-0.5,0.4-0.8,1-0.9,1.7
			c-0.1,0.7,0.1,1.3,0.6,1.9l4.9,5.9c0.4,0.5,1,0.8,1.7,0.9c0.6,0.1,1.3-0.1,1.9-0.6l54.9-45.8l54.9,45.8c0.4,0.4,1,0.6,1.7,0.6h0.2
			c0.7-0.1,1.2-0.4,1.7-0.9l4.9-5.9c0.4-0.5,0.6-1.2,0.6-1.9C-319.1,384.7-319.4,384.1-319.9,383.7z"/>
	</g>
</g>
</svg>
