<svg version="1.1" xmlns="http://www.w3.org/2000/svg" xmlns:xlink="http://www.w3.org/1999/xlink" x="0px" y="0px"
   viewBox="0 0 64 64" enable-background="new 0 0 64 64" xml:space="preserve">
<path d="M64,14.7V12c0-3.3-2.7-6-6-6H6c-3.3,0-6,2.7-6,6v2.8l32,25.6L64,14.7z"/>
<path d="M0,19.9V52c0,0.3,0,0.5,0.1,0.7l18.2-18.2L0,19.9z"/>
<path d="M63.9,52.8c0-0.3,0.1-0.5,0.1-0.8V19.8L45.7,34.5L63.9,52.8z"/>
<path d="M33.3,44.6C32.9,44.9,32.4,45,32,45c-0.4,0-0.9-0.1-1.2-0.4l-9.4-7.5L2,56.5c1.1,1,2.5,1.5,4,1.5h52c1.5,0,2.9-0.6,4-1.5
  L42.6,37.1L33.3,44.6z"/>
</svg>

