<?xml version="1.0" encoding="utf-8"?>
<!-- Generator: Adobe Illustrator 18.0.0, SVG Export Plug-In . SVG Version: 6.00 Build 0)  -->
<!DOCTYPE svg PUBLIC "-//W3C//DTD SVG 1.1//EN" "http://www.w3.org/Graphics/SVG/1.1/DTD/svg11.dtd">
<svg version="1.1" id="Layer_1" xmlns="http://www.w3.org/2000/svg" xmlns:xlink="http://www.w3.org/1999/xlink" x="0px" y="0px"
	 viewBox="0 0 64 64" enable-background="new 0 0 64 64" xml:space="preserve">
<path fill="#231F20" d="M51.9,6H12c-3.3,0-6,2.7-6,6v39.9c0,3.3,2.7,6.1,6,6.1h39.9c3.3,0,6.1-2.8,6.1-6.1V12C58,8.7,55.2,6,51.9,6z
	 M32,22c5.5,0,10,4.5,10,10c0,5.5-4.5,10-10,10c-5.5,0-10-4.5-10-10C22,26.4,26.4,22,32,22z M52,49.9c0,1.1-1,2.1-2.1,2.1H14
	c-1.1,0-2-1-2-2.1V28h4.5c-0.3,1-0.5,2.6-0.5,4c0,8.8,7.2,16,16,16c8.8,0,16-7.1,16-16c0-1.4-0.2-3-0.5-4H52V49.9z M52,20
	c0,1.1-1,2-2.1,2h-6c-1.1,0-1.9-0.9-1.9-2v-6c0-1.1,0.8-2,1.9-2h6c1.1,0,2.1,0.9,2.1,2V20z"/>
</svg>
