<?xml version="1.0" encoding="utf-8"?>
<!-- Generator: Adobe Illustrator 19.0.0, SVG Export Plug-In . SVG Version: 6.00 Build 0)  -->
<!DOCTYPE svg PUBLIC "-//W3C//DTD SVG 1.1//EN" "http://www.w3.org/Graphics/SVG/1.1/DTD/svg11.dtd">
<svg version="1.1" id="Layer_1" xmlns="http://www.w3.org/2000/svg" xmlns:xlink="http://www.w3.org/1999/xlink" x="0px" y="0px"
	 viewBox="-476 335 128 128" style="enable-background:new -476 335 128 128;" xml:space="preserve">
<g>
	<path d="M-384.6,369.3c0-1-0.8-2.1-1.8-2.4l-52.9-15.3c-1-0.3-1.1-1-0.3-1.6l4.7-3.6c0.8-0.6,2.3-0.9,3.3-0.6l52.9,15.3
		c1,0.3,1.8,1.4,1.8,2.4v83.2c0,0-0.6,0.5-1.4,1.2l-4.7,4.1c-0.8,0.7-1.4,0.4-1.4-0.6L-384.6,369.3L-384.6,369.3z"/>
	<path d="M-369.4,354l-64.9-18.8c-0.7-0.2-0.7-0.2-0.7-0.2c-0.8,0.3-2,1.1-2.8,1.7l-17.7,13.5c-0.8,0.6-0.8,0.8-0.8,0.8
		c0,1,0,2.7,0,3.7v87.4c0,1,0.8,2.1,1.8,2.4l63.6,18.4c1,0.3,1.8-0.3,1.8-1.3v-88.8c0-1-0.8-2.1-1.8-2.4l-4.1-1.2v30l-9.5-13.5
		l-8,8.1v-29.7l-36.9-10.7c-1-0.3-1.1-1-0.3-1.6l13.9-10.6c0.8-0.6,2.3-0.9,3.3-0.6l58.4,17c1,0.3,1.8,1.4,1.8,2.4v88.8
		c0,1,0.8,1.9,1.9,1.9h1.1c1,0,1.9-0.8,1.9-1.9v-92.5C-367.6,355.3-368.3,354.3-369.4,354z"/>
	<polygon points="-408.9,384.8 -404.1,379.9 -398.9,387.5 -398.9,368 -408.9,365.1 	"/>
</g>
</svg>
