<svg xmlns="http://www.w3.org/2000/svg" xmlns:xlink="http://www.w3.org/1999/xlink" version="1.1" x="0px" y="0px" viewBox="0 0 64 64" enable-background="new 0 0 64 64" xml:space="preserve">
<g>
  <path d="M32 0C14.3 0 0 14.3 0 32s14.3 32 32 32c17.7 0 32-14.3 32-32S49.7 0 32 0z M32 58.7c-14.7 0-26.7-12-26.7-26.7 S17.3 5.3 32 5.3c14.7 0 26.7 12 26.7 26.7S46.7 58.7 32 58.7z"/>
  <path d="M51.8 25.7C51.8 25.7 51.8 25.7 51.8 25.7c0-0.1 0-0.2 0-0.2c0 0 0-0.1 0-0.1c0 0 0-0.1 0-0.1c0 0 0-0.1 0-0.1 c0 0 0-0.1-0.1-0.1c0 0 0-0.1 0-0.1c0 0 0-0.1-0.1-0.1c0 0 0 0-0.1-0.1c0 0-0.1-0.1-0.1-0.1c0 0 0 0-0.1-0.1c0 0-0.1-0.1-0.1-0.1 c0 0-0.1 0-0.1-0.1c0 0 0 0 0 0L32.9 12.5c-0.6-0.4-1.3-0.4-1.9 0L13 24.6c0 0 0 0 0 0c0 0-0.1 0-0.1 0.1c0 0-0.1 0.1-0.1 0.1 c0 0 0 0-0.1 0.1c0 0-0.1 0.1-0.1 0.1c0 0 0 0-0.1 0.1c0 0 0 0.1-0.1 0.1c0 0 0 0.1 0 0.1c0 0 0 0.1-0.1 0.1c0 0 0 0.1 0 0.1 c0 0 0 0.1 0 0.1c0 0 0 0.1 0 0.1c0 0 0 0.1 0 0.1c0 0 0 0 0 0.1c0 0.1 0 0.1 0 0.2V38c0 0.1 0 0.1 0 0.2c0 0 0 0 0 0.1 c0 0 0 0.1 0 0.1c0 0 0 0.1 0 0.1c0 0 0 0.1 0 0.1c0 0 0 0.1 0 0.1c0 0 0 0.1 0.1 0.1c0 0 0 0.1 0 0.1c0 0 0 0.1 0.1 0.1 c0 0 0 0 0.1 0.1c0 0 0.1 0.1 0.1 0.1c0 0 0 0 0.1 0.1c0 0 0.1 0.1 0.1 0.1c0 0 0 0 0.1 0.1c0 0 0 0 0 0l18.1 12.1 c0.3 0.2 0.6 0.3 0.9 0.3c0.3 0 0.7-0.1 0.9-0.3L51 39.4c0 0 0 0 0 0c0 0 0.1 0 0.1-0.1c0 0 0.1-0.1 0.1-0.1c0 0 0 0 0.1-0.1 c0 0 0.1-0.1 0.1-0.1c0 0 0 0 0.1-0.1c0 0 0-0.1 0.1-0.1c0 0 0-0.1 0-0.1c0 0 0-0.1 0.1-0.1c0 0 0-0.1 0-0.1c0 0 0-0.1 0-0.1 c0 0 0-0.1 0-0.1c0 0 0-0.1 0-0.1c0 0 0 0 0-0.1c0-0.1 0-0.1 0-0.2V26C51.8 25.9 51.8 25.8 51.8 25.7z M33.7 17.1L47 26l-6 4 L33.7 25V17.1z M30.3 17.1V25L22.9 30l-6-4L30.3 17.1z M15.6 29.2l4.3 2.8l-4.3 2.8V29.2z M30.3 46.9L17 38l6-4l7.4 4.9V46.9z M32 36l-6-4l6-4l6 4L32 36z M33.7 46.9V39l7.4-4.9l6 4L33.7 46.9z M48.4 34.8L44.1 32l4.3-2.8V34.8z"/>
</g>
</svg>
