<?xml version="1.0" encoding="utf-8"?>
<!DOCTYPE svg PUBLIC "-//W3C//DTD SVG 1.1//EN" "http://www.w3.org/Graphics/SVG/1.1/DTD/svg11.dtd">
<svg version="1.1" id="Layer_1" xmlns="http://www.w3.org/2000/svg" xmlns:xlink="http://www.w3.org/1999/xlink" x="0px" y="0px"
	 viewBox="-447 321 128 128" style="enable-background:new -447 321 128 128;" xml:space="preserve">
<path d="M-319.6,424.5l-38.9-39l18.1-18.2c1,0.1,2.1-0.2,3-1l7.6-7.6c0.8-0.8,1.1-1.9,1-3l4.3-4.3c3.6-3.6,3.6-9.6,0-13.2
	l-11.2-11.3c-3.6-3.6-9.5-3.6-13.2,0l-4.2,4.2c-1.1-0.2-2.3,0.1-3.1,0.9l-7.6,7.6c-0.8,0.8-1.2,2-0.9,3.1l-18.1,18.2l-39-39.1
	c-1-1-2.5-1-3.5,0l-20.9,21c-1,1-1,2.5,0,3.5l4.9,4.9l8.7-8.8c0.4-0.4,1.1-0.4,1.5,0c0.4,0.4,0.4,1.1,0,1.5l-8.7,8.8l4.9,4.9
	l8.7-8.8c0.4-0.4,1.1-0.4,1.5,0c0.4,0.4,0.4,1.1,0,1.5l-8.7,8.8l4.9,4.9l8.7-8.8c0.4-0.4,1.1-0.4,1.5,0c0.4,0.4,0.4,1.1,0,1.5
	l-8.7,8.8l4.9,4.9l8.7-8.8c0.4-0.4,1.1-0.4,1.5,0s0.4,1.1,0,1.5l-8.7,8.8l4.9,4.9l14.3-14.4c0.4-0.4,1.1-0.4,1.5,0
	c0.4,0.4,0.4,1.1,0,1.5l-14.3,14.4l4.9,4.9l8.7-8.8c0.4-0.4,1.1-0.4,1.5,0c0.4,0.4,0.4,1.1,0,1.5l-36.8,37l0,0
	c-1.1,1.1-1.7,2.6-1.7,4.1l0.1,18.2c0.1,0.9,0.6,1.9,1.3,2.6c0.7,0.7,1.7,1.2,2.6,1.3l18.1,0.1c1.5,0,3-0.6,4.1-1.7l42.7-42.9
	c0.4-0.2,0.9-0.1,1.3,0.2c0.4,0.4,0.4,1.1,0,1.5l-14.3,14.4l4.9,4.9l8.7-8.8c0.4-0.4,1.1-0.4,1.5,0c0.4,0.4,0.4,1.1,0,1.5l-8.7,8.8
	l4.9,4.9l8.7-8.8c0.4-0.4,1.1-0.4,1.5,0c0.4,0.4,0.4,1.1,0,1.5l-8.7,8.8l4.9,4.9l8.7-8.8c0.4-0.4,1.1-0.4,1.5,0
	c0.4,0.4,0.4,1.1,0,1.5l-8.7,8.8l4.9,4.9l8.7-8.8c0.4-0.4,1.1-0.4,1.5,0c0.4,0.4,0.4,1.1,0,1.5l-8.7,8.8l4.9,4.9l14.3-14.4
	c0.4-0.4,1.1-0.4,1.5,0c0.4,0.4,0.4,1.1,0,1.5l-14.3,14.4l4.9,4.9c1,1,2.5,1,3.5,0l20.9-21C-318.7,427.1-318.7,425.5-319.6,424.5z
	 M-345.8,330.5c1.7-1.7,4.4-1.7,6,0l5.7,5.7l-6.5,6.5l-8.7-8.8L-345.8,330.5z M-352.9,336.2c0.5-0.5,1.4-0.5,1.9,0l8.4,8.5
	c0.5,0.5,0.5,1.4,0,1.9c-0.5,0.5-1.4,0.5-1.9,0l0,0l-8.4-8.5l0,0c0,0,0,0-0.1-0.1C-353.4,337.7-353.4,336.7-352.9,336.2z
	 M-359.7,343.2c0.5-0.5,1.4-0.5,1.9,0c0,0,0,0,0.1,0.1l0,0l8.4,8.5c0.5,0.5,0.5,1.4,0,1.9c-0.5,0.5-1.4,0.5-1.9,0l0,0l-8.4-8.5l0,0
	C-360.3,344.5-360.3,343.7-359.7,343.2z M-429,431.9l-3.6-3.6v-9.3c1.6,1.3,3.6,2,5.6,2c0,2.2,0.8,4.5,2.5,6.2L-429,431.9z
	 M-421.8,424.4c-2-1.8-1.8-4.9,0.3-7l55.2-55.4c0.5-0.5,0.5-1.4,0-1.9c-0.5-0.5-1.4-0.5-1.9,0l-55.2,55.4c-2.1,2.1-5.3,2.2-7,0.2
	l68.5-68.9l8.7,8.8L-421.8,424.4z"/>
</svg>
