<?xml version="1.0" encoding="utf-8"?>
<!DOCTYPE svg PUBLIC "-//W3C//DTD SVG 1.1//EN" "http://www.w3.org/Graphics/SVG/1.1/DTD/svg11.dtd">
<svg version="1.1" id="Capa_1" xmlns="http://www.w3.org/2000/svg" xmlns:xlink="http://www.w3.org/1999/xlink" x="0px" y="0px"
	 viewBox="-447 321 128 128" style="enable-background:new -447 321 128 128;" xml:space="preserve">
<g>
	<g>
		<g id="Layer_5_2_">
			<path style="&st0;" d="M-320.6,381.7l-53.6-37.4c-2.1-1.8-3.8-1-3.8,1.8v15.6c0,2.8-2.3,5-5,5l-33.2,0H-442v0c-2.8,0-5,2.3-5,5
				l0,26.4c0,2.8,2.3,5,5,5l58.4-0.1h0.6c2.8,0,5,2.3,5,5v15.6c0,2.8,1.7,3.6,3.8,1.8l53.6-37.4
				C-318.5,386.5-318.5,383.5-320.6,381.7z"/>
		</g>
	</g>
</g>
</svg>
