<?xml version="1.0" encoding="utf-8"?>
<!DOCTYPE svg PUBLIC "-//W3C//DTD SVG 1.1//EN" "http://www.w3.org/Graphics/SVG/1.1/DTD/svg11.dtd">
<svg version="1.1" id="Capa_1" xmlns="http://www.w3.org/2000/svg" xmlns:xlink="http://www.w3.org/1999/xlink" x="0px" y="0px" viewBox="-447 321 128 128" style="enable-background:new -447 321 128 128;" xml:space="preserve">
<g>
	<g>
		<g id="Layer_5_2_">
			<path d="M-445.4,388.3l53.6,37.4c2.1,1.8,3.8,1,3.8-1.8v-15.6c0-2.8,2.3-5,5-5l33.2,0h25.8v0c2.8,0,5-2.3,5-5l0-26.4
				c0-2.8-2.3-5-5-5l-58.4,0.1h-0.6c-2.8,0-5-2.3-5-5v-15.6c0-2.8-1.7-3.6-3.8-1.8l-53.6,37.4C-447.5,383.5-447.5,386.5-445.4,388.3
				z"/>
		</g>
	</g>
</g>
</svg>
