<svg version="1.1" xmlns="http://www.w3.org/2000/svg" xmlns:xlink="http://www.w3.org/1999/xlink" x="0px" y="0px"
	 viewBox="0 0 64 64" enable-background="new 0 0 64 64" xml:space="preserve">
<path d="M64,31.9C64,49.6,49.7,64,32,64C14.3,64,0,49.6,0,31.9C0,14.3,14.3,0,32,0C49.7,0,64,14.3,64,31.9z M40,58
	c11-3.9,19-14,19-26.1C59,17.1,46.9,5,32,5C17.1,5,5,17.1,5,31.9C5,44.1,13.2,54.3,24.3,58v-5.1c0-3.1,1.3-4.7,2.6-5.6
	c-7-0.7-14.4-3.2-14.4-15.2c0-3.4,1.2-6.1,3.2-8.3c-0.3-0.8-1.3-3.9,0.3-8.2c0,0,2.6-0.8,8.5,3.2c2.4-0.7,5.1-1,7.7-1
	c2.6,0,5.3,0.3,7.7,1c5.9-4,8.5-3.2,8.5-3.2c1.7,4.2,0.6,7.3,0.3,8.2c2,2.1,3.2,4.9,3.2,8.3c0,12-7.5,14.5-14.4,15.2
	c1.3,0.9,2.6,2.5,2.6,5.6V58z"/>
</svg>
